<?xml version="1.0"?>
<svg xmlns:rdf="http://www.w3.org/1999/02/22-rdf-syntax-ns#" xmlns="http://www.w3.org/2000/svg" xmlns:cc="http://web.resource.org/cc/" xmlns:dc="http://purl.org/dc/elements/1.1/" xmlns:svg="http://www.w3.org/2000/svg" id="svg69498" viewBox="0 0 213.12 172.52" version="1.0">
  <g id="layer1" transform="translate(-235.04 -20.292)">
    <path id="path69759" stroke="#000" stroke-width="4.468" fill="#fff" d="m292.21 22.527c-0.84 0.023-1.69 0.252-2.46 0.701l-49.88 28.797c-2.49 1.438-3.34 4.598-1.9 7.089l16.99 29.432c1.44 2.492 4.61 3.337 7.1 1.898l26.06-15.048v109.98c0 2.87 2.33 5.19 5.2 5.19h96.29c2.88 0 5.19-2.32 5.19-5.19v-110.14l26.34 15.204c2.49 1.439 5.65 0.594 7.09-1.898l16.99-29.432c1.44-2.491 0.59-5.651-1.9-7.089l-49.87-28.797c-1.01-0.584-2.14-0.791-3.21-0.664-0.21-0.025-0.41-0.037-0.63-0.037h-27.58c-0.41 3.273-9.41 5.893-20.44 5.893-11.02 0-20.02-2.62-20.43-5.893h-27.84c-0.16 0-0.33 0.014-0.49 0.03-0.21-0.02-0.41-0.035-0.62-0.03z"/>
  </g>
  <metadata>
    <rdf:RDF>
      <cc:Work>
        <dc:format>image/svg+xml</dc:format>
        <dc:type rdf:resource="http://purl.org/dc/dcmitype/StillImage"/>
        <cc:license rdf:resource="http://creativecommons.org/licenses/publicdomain/"/>
        <dc:publisher>
          <cc:Agent rdf:about="http://openclipart.org/">
            <dc:title>Openclipart</dc:title>
          </cc:Agent>
        </dc:publisher>
        <dc:title>white t-shirt</dc:title>
        <dc:date>2007-04-28T19:25:51</dc:date>
        <dc:description>a basic t-shirt design that could be used for putting your own design on.</dc:description>
        <dc:source>http://openclipart.org/detail/4172/white-t-shirt-by-ryanlerch</dc:source>
        <dc:creator>
          <cc:Agent>
            <dc:title>ryanlerch</dc:title>
          </cc:Agent>
        </dc:creator>
        <dc:subject>
          <rdf:Bag>
            <rdf:li>apparel</rdf:li>
            <rdf:li>clip art</rdf:li>
            <rdf:li>clipart</rdf:li>
            <rdf:li>clothing</rdf:li>
            <rdf:li>design</rdf:li>
            <rdf:li>image</rdf:li>
            <rdf:li>media</rdf:li>
            <rdf:li>public domain</rdf:li>
            <rdf:li>remix</rdf:li>
            <rdf:li>svg</rdf:li>
            <rdf:li>tshirt</rdf:li>
            <rdf:li>web store</rdf:li>
          </rdf:Bag>
        </dc:subject>
      </cc:Work>
      <cc:License rdf:about="http://creativecommons.org/licenses/publicdomain/">
        <cc:permits rdf:resource="http://creativecommons.org/ns#Reproduction"/>
        <cc:permits rdf:resource="http://creativecommons.org/ns#Distribution"/>
        <cc:permits rdf:resource="http://creativecommons.org/ns#DerivativeWorks"/>
      </cc:License>
    </rdf:RDF>
  </metadata>
</svg>
